<svg width="40" height="40" version="1.1" id="Layer_1" xmlns="http://www.w3.org/2000/svg" xmlns:xlink="http://www.w3.org/1999/xlink" x="0px" y="0px"
	 viewBox="0 0 512 512" style="enable-background:new 0 0 512 512;" xml:space="preserve">
<g>
	<g>
		<path fill="#2fb2ca" d="M159.793,309.633H106.11c2.875-10.117,11.576-15.086,24.975-21.93c16.485-8.419,37.001-18.898,37.001-48.843
			c0-24.39-17.858-44.233-39.81-44.233c-21.952,0-39.81,19.843-39.81,44.233c0,4.58,3.713,8.294,8.294,8.294
			c4.58,0,8.294-3.713,8.294-8.294c0-15.244,10.417-27.646,23.222-27.646c12.806,0,23.222,12.402,23.222,27.646
			c0,18.836-10.624,25.218-27.959,34.072c-15.626,7.981-35.074,17.914-35.074,44.995c0,4.58,3.713,8.294,8.294,8.294h63.032
			c4.58,0,8.294-3.713,8.294-8.294C168.086,313.346,164.373,309.633,159.793,309.633z"/>
	</g>
</g>
<g>
	<g>
		<path fill="#2fb2ca" d="M464.988,415.919l-13.36,5.223C490.715,375.028,512,317.242,512,256c0-68.38-26.628-132.668-74.981-181.019
			S324.38,0,256,0c-52.557,0-103.059,15.809-146.046,45.719c-3.76,2.616-4.687,7.785-2.071,11.545
			c2.615,3.759,7.784,4.688,11.545,2.071C159.621,31.369,206.847,16.587,256,16.587c63.949,0,124.071,24.903,169.291,70.122
			c45.219,45.22,70.122,105.341,70.122,169.291c0,59.316-21.349,115.165-60.43,159.01l3.324-20.622
			c0.729-4.522-2.345-8.779-6.867-9.508c-4.52-0.733-8.779,2.345-9.508,6.867l-7.809,48.441c-0.473,2.938,0.664,5.905,2.979,7.774
			c1.498,1.21,3.343,1.84,5.21,1.84c1.016,0,2.041-0.187,3.019-0.57l45.699-17.865c4.265-1.668,6.372-6.478,4.704-10.744
			C474.064,416.358,469.254,414.25,464.988,415.919z"/>
	</g>
</g>
<g>
	<g>
		<path fill="#2fb2ca" d="M338.242,168.512c-4.344-1.449-9.042,0.9-10.491,5.246l-53.08,159.24c-1.449,4.345,0.9,9.042,5.246,10.491
			c0.87,0.289,1.755,0.427,2.624,0.427c3.472,0,6.708-2.198,7.867-5.673l53.08-159.24
			C344.937,174.658,342.588,169.961,338.242,168.512z"/>
	</g>
</g>
<g>
	<g>
		<path fill="#2fb2ca" d="M431.072,198.45c-1.524-2.383-4.158-3.824-6.986-3.824H362.16c-4.58,0-8.294,3.713-8.294,8.294
			c0,4.58,3.713,8.294,8.294,8.294h48.964l-47.648,103.237c-1.919,4.159-0.104,9.087,4.055,11.006
			c1.126,0.52,2.307,0.765,3.47,0.765c3.135,0,6.135-1.787,7.535-4.82l53.08-115.006
			C432.801,203.828,432.596,200.832,431.072,198.45z"/>
	</g>
</g>
<g>
	<g>
		<path fill="#2fb2ca" d="M256,283.093h-9.4V202.92c0-4.58-3.713-8.294-8.294-8.294c-4.58,0-8.294,3.713-8.294,8.294v80.173h-34.67l15.709-78.546
			c0.899-4.492-2.014-8.861-6.506-9.759c-4.496-0.897-8.861,2.015-9.759,6.507l-17.693,88.467c-0.487,2.436,0.144,4.963,1.718,6.885
			c1.576,1.922,3.929,3.036,6.414,3.036h44.786v18.246c0,4.58,3.713,8.294,8.294,8.294c4.58,0,8.294-3.713,8.294-8.294V299.68h9.4
			c4.58,0,8.294-3.713,8.294-8.294C264.294,286.806,260.58,283.093,256,283.093z"/>
	</g>
</g>
<g>
	<g>
		<path fill="#2fb2ca" d="M404.112,454.74c-2.615-3.761-7.785-4.689-11.544-2.072c-40.193,27.964-87.417,42.745-136.568,42.745
			c-63.949,0-124.071-24.903-169.291-70.122C41.491,380.071,16.587,319.949,16.587,256c0-59.315,21.349-115.164,60.429-159.009
			l-3.568,22.132c-0.729,4.522,2.345,8.779,6.867,9.508c0.447,0.072,0.891,0.107,1.33,0.107c3.999,0,7.521-2.9,8.178-6.974
			l8.053-49.952c0.473-2.938-0.664-5.905-2.979-7.774s-5.456-2.354-8.228-1.271L39.547,81.189
			c-4.265,1.668-6.372,6.478-4.704,10.744c1.668,4.265,6.478,6.372,10.744,4.704l14.785-5.78C21.285,136.972,0,194.758,0,256
			c0,68.38,26.628,132.668,74.981,181.019S187.62,512,256,512c52.555,0,103.055-15.808,146.041-45.716
			C405.8,463.669,406.728,458.499,404.112,454.74z"/>
	</g>
</g>
<g>
</g>
<g>
</g>
<g>
</g>
<g>
</g>
<g>
</g>
<g>
</g>
<g>
</g>
<g>
</g>
<g>
</g>
<g>
</g>
<g>
</g>
<g>
</g>
<g>
</g>
<g>
</g>
<g>
</g>
</svg>
