<?xml version="1.0" encoding="UTF-8"?>
<svg xmlns="http://www.w3.org/2000/svg" width="24" height="24" viewBox="0 0 24 24" fill="none">
<path d="M3.91773 7.84015H0.783564C0.352688 7.84015 0 8.19106 0 8.62367V22.7275C0 23.1599 0.351141 23.5109 0.783564 23.5109H3.91773C4.35015 23.5109 4.70129 23.1599 4.70129 22.7275V8.62367C4.70129 8.19106 4.34856 7.84015 3.91773 7.84015Z" fill="#2FB2CA"></path>
<path d="M22.0436 7.84015C21.9174 7.81877 16.009 7.84015 16.009 7.84015L16.8343 5.58864C17.4037 4.03361 17.035 1.65924 15.455 0.815116C14.9406 0.54024 14.2218 0.402193 13.6423 0.548068C13.3099 0.631693 13.0178 0.851725 12.8438 1.14652C12.6436 1.48557 12.6642 1.88134 12.5929 2.25727C12.4121 3.21081 11.9616 4.11742 11.2638 4.79791C10.0473 5.98436 6.26831 9.40718 6.26831 9.40718V21.9439H19.3274C21.0895 21.945 22.2443 19.9771 21.3752 18.4401C22.4112 17.7765 22.7655 16.379 22.1588 15.3059C23.1948 14.6424 23.5491 13.2448 22.9423 12.1717C24.7299 11.0269 24.1322 8.1934 22.0436 7.84015Z" fill="#2FB2CA"></path>
</svg>
